# xmcd CD database file
#
# Track frame offsets:
#	150
#	13645
#	23919
#	37355
#	52062
#	68030
#	78912
#	94102
#	106982
#	121862
#	138812
#	157012
#	170230
#	184570
#	200797
#	218472
#	235735
#	250812
#	261247
#	276285
#	292065
#
# Disc length: 4068 seconds
#
# Revision: 0
# Processed by: cddbd v1.5.2PL0 Copyright (c) Steve Scherf et al.
# Submitted via: CDex 1.70beta2
#
DISCID=350fe215
DTITLE=Jonws Classic Country - Jones Classic Country CCC-617
DYEAR=0000
DGENRE=Country
TTITLE0=Johnny Paycheck/she's all I got
TTITLE1=Johnny Paycheck/mr lovemaker
TTITLE2=Johnny Paycheck/slide off your satin sheets
TTITLE3=Johnny Paycheck/i'm the only hell my mom's ever raised
TTITLE4=charley pride/you're so good when you're bad
TTITLE5=jerry reed/when you're hot, you're hot
TTITLE6=jerry reed/she got the goldmine (i got the shaft)
TTITLE7=t g sheppard/devil in the bottle
TTITLE8=t g sheppard/you feel good all over
TTITLE9=t g sheppard/last cheater's waltz
TTITLE10=t g sheppard/one for the money
TTITLE11=t g sheppard and karen brooks/faking love
TTITLE12=t g sheppard/i feel like loving you again
TTITLE13=ricky skaggs/honey (open that door)
TTITLE14=ricky skaggs/country boy
TTITLE15=ricky skaggs/love can't ever get better than this
TTITLE16=joe stampley/all these things
TTITLE17=statler brothers/do you know you are my sunshine
TTITLE18=statler brothers/don't wait on me
TTITLE19=statler brothers/elizabeth
TTITLE20=ray stevens/misty
EXTD=YEAR: 0000
EXTT0=
EXTT1=
EXTT2=
EXTT3=
EXTT4=
EXTT5=
EXTT6=
EXTT7=
EXTT8=
EXTT9=
EXTT10=
EXTT11=
EXTT12=
EXTT13=
EXTT14=
EXTT15=
EXTT16=
EXTT17=
EXTT18=
EXTT19=
EXTT20=
PLAYORDER=
